# xmcd
# 
# Track frame offsets:
#     150
#     20060
#     41263
#     57911
#     80526
#     119430
#     142553
#     164148
#     184226
#     197896
#     230286
# 
# Disc length: 3450
# 
# Revision: 0
# Processed by: cddbd v1.5.2PL0 Copyright (c) Steve Scherf et al.
# Submitted via: fre:ac v1.0.17
# 
DISCID=920d780b
DTITLE=BB King and Eric Clapton - Riding With the King
DYEAR=0
DGENRE=Blues
TTITLE0=Riding With The King
TTITLE1=Ten Long Years
TTITLE2=Key To The Highway
TTITLE3=Marry You
TTITLE4=Three O'Clock Blues
TTITLE5=Help The Poor
TTITLE6=I Wanna Be
TTITLE7=Worried Life Blues
TTITLE8=Days of Old
TTITLE9=When my Hearts Beats Like A Ha
TTITLE10=Hold On I'm Coming
EXTD=
EXTT0=
EXTT1=
EXTT2=
EXTT3=
EXTT4=
EXTT5=
EXTT6=
EXTT7=
EXTT8=
EXTT9=
EXTT10=
PLAYORDER=
